<?xml version="1.0" encoding="utf-8"?>
<!-- Generator: Adobe Illustrator 21.0.0, SVG Export Plug-In . SVG Version: 6.00 Build 0)  -->
<svg version="1.1" xmlns="http://www.w3.org/2000/svg" xmlns:xlink="http://www.w3.org/1999/xlink" x="0px" y="0px"
	 viewBox="0 0 1280 1024" style="enable-background:new 0 0 1280 1024;" xml:space="preserve">
<style type="text/css">
	.st0{display:none;}
	.st1{display:inline;opacity:0.17;fill:#020202;}
	.st2{display:inline;fill:none;stroke:#020202;stroke-width:38;stroke-linecap:round;stroke-miterlimit:10;}
	.st3{display:inline;}
	.st4{fill:#FFFFFF;}
	.st5{fill:#020202;}
	.st6{display:inline;opacity:0.49;}
	.st7{fill:none;}
	.st8{font-family:'KGRiseUP';}
	.st9{font-size:46px;}
</style>
<g id="Layer_1">
</g>
<g id="Layer_12">
</g>
<g id="Layer_6" class="st0">
</g>
<g id="Layer_1_copy" class="st0">
	<path class="st1" d="M988.7,842.3c-12.4-0.3-23.5-2.3-33.3-8.4c-2.1-1.3-2.5-1.5-3.9,0.8c-7.4,12-17.3,22.3-23.1,35.4
		c-2.6,6-7.5,6.1-10.4,0.3c-6.4-12.8-16-23.2-24.3-34.6c-1.4-1.9-1.7-2.4-3.9-0.8c-9.3,6.7-20.4,9.7-31.3,9.6
		c-18.4-0.1-35.9-5-50.6-17.1c-10.8-8.8-19.6-19.1-22.6-33.3c-0.5-2.2-1.8-2.8-4.3-2.4c-13.3,2.3-26.8,3.3-39.6,8.1
		c-2.6,1-5.4,2-7.8-0.5c-2.1-2.3-1.2-4.7-0.3-7.4c4.3-13.1,4.3-27,6.9-40.5c0.8-4-2.9-3.9-4.6-4.2c-10.9-1.7-19.7-7.9-27.1-15
		c-10.2-9.7-17.1-22-20.9-35.6c-4.3-15.2-4.1-30.3,1.6-45.3c1.3-3.3,5.9-6,4-9.4c-1.5-2.9-5.6-4.4-8.6-6.4c-9-6.1-17.5-13-27.4-17.8
		c-2.3-1.1-4.4-2.2-4.5-5.2c-0.1-2.9,2-4.1,4.3-5.3c12.2-6.8,22.8-15.9,33.9-24.4c2.2-1.7,1.9-2.5,0.8-4.2c-17.4-26.1-8-62.9,8.9-83
		c8.4-10,18.2-17.5,30.9-20.8c2.6-0.7,4.6-1.5,3.7-5.3c-3.2-13.7-3.8-27.9-8.9-41.3c-1.8-4.6,1.8-7.6,6.8-6.1
		c13.6,4,27.7,5.1,41.7,6.9c3,0.4,3.7-0.7,4.4-3.1c7.6-28.1,27.7-42.9,54.6-49.8c16.9-4.3,33.6-3.2,48.8,6.4
		c1.8,1.2,2.3,0.5,3.2-0.8c7.6-11.6,17.1-22,22.8-34.9c1.1-2.5,2.7-5.1,5.3-5.3c3.1-0.3,4.8,2.6,6.1,5.2c6.1,12.7,16.5,22.3,24,34.1
		c1.4,2.2,2.2,1.1,3.7,0.1c9.4-6.5,20.4-9.5,31.4-9.5c14.5,0,28.9,3.2,41.6,10.9c15.3,9.3,27.2,21.4,31.5,39.5
		c0.4,1.5,1,2.9,3.8,2.4c13.3-2.3,26.8-3.4,39.6-8c2.8-1,5.8-2.3,8.3,0.4c2,2.3,1,4.7,0.2,7.4c-4,13.2-4.3,27-6.8,40.5
		c-0.3,1.7,0.1,2.7,2.4,3.3c30.1,8.1,45.3,29.5,51.7,58.5c3.5,15.8,1.6,31-6.8,45c-1.3,2.2-0.3,2.4,1.1,3.5
		c11.2,8.3,22.2,16.9,34.6,23.3c2.3,1.2,4.4,2.2,4.5,5.2c0.1,2.9-2.1,4.1-4.3,5.3c-12.2,6.8-22.9,15.8-33.8,24.5
		c-1.5,1.2-2.3,1.4-1,3.5c12.3,19.8,11.8,40.5,4,61.6c-5.9,15.9-15.8,28.4-30.2,37.4c-4.5,2.8-9.4,4.6-14.4,5.9
		c-2.3,0.6-3.4,1.2-2.9,3.5c3.3,13.7,3.7,28,8.8,41.3c0.8,2.1,1.3,4.4-0.5,6.3c-2.1,2.1-4.5,1.9-7.1,1c-13.1-4.4-26.9-5-40.4-6.8
		c-2.8-0.4-3.8,0.5-4.5,3c-7.4,28.4-27.8,42.5-54.4,50.2C998.5,841.5,992.8,839.9,988.7,842.3z M792.1,688c0,1.8,0.9,3,2.5,3.7
		c3,7.2,8.5,12.8,13.7,18.3c20.4,21.6,45,36.5,74,43.8c22.2,5.6,44.5,6.3,66.8,1.6c23.3-4.9,44.7-14.8,63.3-29.8
		c14.4-11.7,26.8-25.3,35.6-41.9l-0.1,0.1c1.1-0.9,1.8-2,2.5-3.3c7.9-15.5,13.9-31.5,16.5-49c3.7-24,1.9-47.4-5.4-70.3
		c-3.8-11.8-8.6-23.4-16.4-33.4c0-1.4-0.6-2.4-1.7-3.2c-12.6-19.1-28.7-34.2-48.4-46c-24.4-14.7-50.8-21-78.9-21.2
		c-8.6-0.1-17.4,1.3-25.9,2.9c-16.1,3-31.3,8.7-45.6,16.8c-9.7,5.5-18.8,11.9-26.9,19.4c-10.1,9.4-19.7,19.3-25.9,32
		c-2.7,1.4-2.8,4.5-4.3,6.7c-12,19.7-17.4,41.5-18.8,64.2c-0.8,13-0.1,26,2.9,38.9c3.8,16.6,9.1,32.5,18.6,46.8
		C790.7,686.1,791.4,687,792.1,688z M760.6,597.9c1.2-5.5-1.6-9-5.5-11.5c-9.7-6.4-20.2-7.2-31.3-4.2c-20,5.4-33.8,21-52.6,30.1
		c13.8,6.8,24.9,15.6,37.4,22.1c13.5,7.1,27.7,10.9,42.8,3.7c7-3.3,10.2-7.6,9.6-14.5c-7.4,3-14.3,6.9-22.7,7.5
		c-16.6,1.2-28.9-7.7-41.6-15.7c-2.9-1.8-3-5,0.4-7.3c3-2,5.9-4.3,8.9-6.3c9.8-6.3,19.8-11.4,32.2-10.6
		C746.5,591.6,753.3,595.2,760.6,597.9z M1076,592.5c6.9-3,13.1-6.6,20.6-7.5c17.3-2.2,30.3,6.6,43.4,15.5c3.4,2.3,3.2,5.1-0.3,7.5
		c-3,2.1-5.8,4.3-8.9,6.4c-9.6,6.4-19.5,10.9-31.6,10.4c-8.3-0.3-15.3-4-23.2-6.9c0.5,5.5,2.2,9.3,6.7,12.1
		c11.9,7.3,23.9,6.6,36.4,1.8c17-6.5,29.6-19.9,47.1-28.2c-13.7-5.8-24.2-14.3-35.9-20.9c-11.8-6.6-23.9-11-37.4-7.3
		C1083.7,577.8,1075.3,581.7,1076,592.5z M1019.3,484.9c2.5-7.4,5-14.6,10-20.7c10.6-12.8,25.9-14.7,40.5-18.2
		c3.4-0.8,5.7,1.8,5.4,4.3c-1.7,10.9-3,22.1-8.5,31.8c-6.3,11.1-16.5,17.7-29.1,20.6c5.5,6,7.8,6.5,14.8,4.2
		c13.5-4.6,21.7-14.3,26.4-27.2c5.7-15.7,6.6-32.4,11.4-49.2c-16,5.2-31.9,6.5-46.8,12.3c-13.3,5.2-24.3,13-28.2,27.7
		C1013.8,475.4,1012.7,481,1019.3,484.9z M1023.5,727.5c-3.9,2.1-4.7,4.9-4.5,8.5c0.9,13.9,9.6,22.3,20.7,28.6
		c10.3,5.9,22,7.5,33.4,9.7c7.6,1.5,15.1,2.9,23.1,4.5c-5.5-16.3-6.7-33-13.1-48.4c-5.3-12.7-13.8-22.2-27.4-26.3
		c-7.4-2.2-10-1.4-14.2,4.8c8.1,2,15.6,4.9,22,10.7c9.6,8.7,12.8,20.1,15.2,32.1c2.7,13.3,2.8,13.6-9.9,11.4
		c-12.8-2.2-25.2-5.4-34.6-15.7C1028.8,741.7,1026.4,734.5,1023.5,727.5z M741.2,436.4c1,3.5,1.7,5.8,2.3,8.1
		c3.5,12.2,4.7,24.9,9.2,36.8c5.4,14.6,13.7,25.7,29.5,30.4c6.4,1.9,10.5,0.2,13.8-4.8c-8.2-2.2-15.8-5-22.2-10.9
		c-9.4-8.8-12.6-20.2-15.3-32.2c-2.3-9.9-4.4-14.3,10.2-11.4c12.8,2.6,25.2,5.5,34.5,15.9c5.3,5.9,7.7,13.1,10.7,20.1
		c3.5-2.1,4.7-4.9,4.4-8.8c-1-13.9-9.6-22.4-20.9-28.5C780.1,441.6,760.1,442.3,741.2,436.4z M818.3,731.2c-1.5,1.5-1.7,3.5-2.2,5.3
		c-2.9,10-9,17.7-17.6,23.2c-9.5,6.1-20.6,7.8-31.4,10c-3.6,0.7-5.1-1.6-4.8-5c0.3-3.2,0.9-6.4,1.4-9.6c3.7-21,13.3-37,36-42
		c-3.2-4.6-7.4-6.7-12.4-5.2c-12.7,3.9-22,12-27.3,24.1c-7.3,16.8-7.7,35.2-12.5,52.5c2.5,1,4.1-0.6,5.7-1
		c13.5-4,27.7-5.1,40.8-10.4c13.2-5.4,24.2-13.3,28.1-27.9C823.5,740.3,824.5,734.6,818.3,731.2z M903,449.3
		c-4.7-6.8-7.3-14.4-7.9-22.5c-1.1-16.3,8.4-28.6,16.7-41.2c1.4-2.1,4.4-2.3,6.3,0.8c2.2,3.6,4.8,7,7.2,10.4
		c12.1,16.6,14,33.9,3.1,52.2c6.4,1.6,10-1.4,12.6-6.2c7.1-13,5.8-26.1-0.1-39c-7-15.3-18.4-27.7-26.5-42.1
		c-6.9,11-13.7,21.7-20.2,32.6c-7.8,12.9-11.9,26.5-7.7,41.7C889.3,446,895,450.9,903,449.3z M934.1,766.2c7.2,11.1,9.5,22.5,7,34.1
		c-2.5,11.3-9.4,20.4-15.7,29.8c-1.5,2.2-4.4,2.4-6.3-0.6c-2.4-3.7-4.9-7.4-7.5-10.9c-6.6-8.9-10.5-18.8-10-29.9
		c0.4-7.7,2.9-15.1,7.1-22.2c-6.3-0.8-9.9,1.6-12.5,6.5c-7,13.1-5.9,26.1,0.1,39c7.1,15.2,18.3,27.8,26.7,42.3c2.5-4.1,4.9-8,7.3-12
		c6.2-10.4,13.6-20.1,18.1-31.4c5.2-13,6.1-25.8-1.3-38.5C944.2,767.5,940.5,764.6,934.1,766.2z M704.6,648.9
		c-0.3,0.2-1.1,0.6-1.5,1.3c-2.5,4.4-5.4,8.5-6.5,13.5c-2.8,13.2-0.8,25.9,4.5,37.9c7.4,16.5,17.5,30.2,36.7,34.7
		c5.4,1.3,5.3-1.5,6.9-4.3c2.1-3.6,0.3-4.6-2.7-6.2c-26.1-14.1-37.3-40.4-29.7-69.7C713.4,652.7,709.1,648.5,704.6,648.9z
		 M693.2,547.5c-0.4,8.8,2.8,16.1,7,23.5c3.4,6,6.4,1.7,9.3,0.9c4.7-1.2,1-4.2,0.6-6.2c-3.4-16.3-3.4-31.9,5.4-46.9
		c5.9-10.1,14-17.6,23.9-23.2c1.8-1,3.4-2.2,1.7-4.1c-1.8-2-0.5-7.2-5-6.2c-4.6,1.1-9.3,2.1-13.5,4.9
		C702.3,504,694.6,524.1,693.2,547.5z M857.5,834c9.5-0.9,17.2-2.8,24.4-7.8c5.7-3.9,1.3-7,0.2-10.3c-1.4-4.1-3.2-0.4-4.7,0.1
		c-25.7,8.9-56.6-2.8-69.9-26.8c-0.9-1.7-0.5-5.7-4.9-4c-4.2,1.6-7.6,3.2-6,8.5c0.8,2.5,1.6,5,2.9,7.2
		C812.5,824,834.4,831,857.5,834z M874.4,403c0.3-0.8,0.5-2.1,1.1-3.1c3.5-5.1,1.1-8.1-3.5-10.5c-12-6.3-24.4-6.3-36.9-2.3
		c-18.3,5.8-34.7,14.4-42.8,33.4c-1.3,3-2.3,5.9-2.2,9.3c0.3,4.9,4.7,3.6,7.3,5c2.7,1.5,2.7-1.7,3.3-2.9c3.5-7.1,8-13.4,14.3-18.4
		C832.8,399.1,852.5,395.1,874.4,403z M955.5,401.8c2.9-1.2,5.4-2.5,8.1-3.2c2.7-0.8,5.5-1.4,8.3-1.5c25.5-1.1,45.7,8,58.3,31
		c1.3,2.4,2.2,3.4,5.4,2.2c5.4-1.9,6.1-5.1,4.5-9.8c-2.2-6.1-4.8-12.1-9.7-16.5c-17.7-16.1-38.1-24.7-62.5-20.5
		c-5.9,1-11.2,4-14.9,8.4C950.5,394.9,955.2,398.1,955.5,401.8z M1144,672.1c-0.4-12.7-2-20.5-7.4-27.9c-4-5.5-6.3-0.6-9-0.2
		c-4.2,0.7-1.5,3.9-0.9,5.7c3.1,9.2,4,18.5,2.1,27.9c-3.7,18.8-13.3,33.6-30.8,42.3c-3.7,1.9-2,3.9-1.2,5.7c0.9,2,0.3,6.2,4.4,5
		c5.4-1.5,11-2.6,15.6-6.2C1135.2,710.1,1143.1,690.8,1144,672.1z M962.8,812.8c-0.3,0.8-0.5,2.1-1.1,3c-3.1,4.4-1.5,7.4,2.6,9.7
		c9.5,5.5,19.3,6.7,30.2,4.7c16.7-3,31-10.1,42.6-22.2c5.5-5.7,9-12.8,10-20.9c0.7-5.4-3.9-4.7-6.7-6.1c-3.6-1.9-3.5,1.8-4.2,3.3
		c-3.5,6.9-7.8,13-13.9,17.9C1004.3,816.6,984.7,820.7,962.8,812.8z M1141.5,538.4c0.6-7.8-2-16.2-5.5-24.1
		c-7.5-17-18-31.1-37.8-35.2c-3-0.6-4.6-0.3-5,3c-0.3,2.7-4.1,5.8,1.2,7.7c6.1,2.1,11.3,6.1,15.4,10.5
		c15.3,16.8,21.8,36.2,15.1,58.9c-0.4,1.5-2.8,5,1.1,5.3c2.8,0.2,5.2,5.4,9.1-0.3C1140.3,556.4,1141.8,548.4,1141.5,538.4z
		 M762.8,580.9c0.3-5.5,1.8-10.1,3.1-14.7c0.7-2.4,1.9-5.2-1.7-6.6c-12.4-5-25.3-8.4-38.7-8.7c-11.3-0.2-11.2,0.1-8,11
		c1.4,4.8,3.6,6.8,9,6.3C740,567,751.9,571.3,762.8,580.9z M763.8,640.5c-9.3,8.7-19.6,13.5-31.6,13.9c-11.2,0.4-11.2,0.3-13.4,11.6
		c-0.1,0.4-0.4,0.7-0.5,1.1c-1.6,3.9-0.1,4.9,3.9,4.9c15.2-0.1,29.5-4.2,43.4-9.9c3.5-1.4,3.1-4,2.1-6.5
		C766,650.8,764.6,646,763.8,640.5z M1074.7,635.3c-1.2,5.5-2.3,10.6-3.6,15.7c-0.6,2.4-1.1,4.2,1.8,5.4c12.4,5,25.3,8.3,38.7,8.6
		c11.3,0.2,11.1,2.2,7.9-11c-1.2-5-3.7-6.7-9-6.3C1097.2,648.7,1085.2,644.4,1074.7,635.3z M1073.7,575.1
		c9.7-9.2,20.9-13.5,33.8-13.7c8.9-0.1,8.9-0.2,10.8-9.1c0.2-1,0.6-1.9,0.9-2.9c0.8-3.5,0.5-5.7-4.2-5.6c-15.2,0.3-29.5,4.2-43.4,10
		c-2.7,1.1-2.9,2.8-2.2,5.3C1070.9,564.3,1072.2,569.5,1073.7,575.1z M827.1,478c5.6-3.2,10.6-6.1,15.7-9c1.3-0.7,2.8-0.9,1.6-3.4
		c-6.8-14.3-14.2-28-26.3-38.7c-2.7-2.3-4-1.9-5.4,0.7c-1.8,3.3-3.4,6.8-5.4,10.1c-1.2,1.9-0.6,2.9,1,4
		C820.6,450.5,826.3,462.8,827.1,478z M831.4,740.8c0.7,13.9-4.1,25.6-13.9,34c-6.1,5.2-4.1,8.5-1.3,13.2c0.8,1.4,1.8,2.7,2.7,4
		c1.7,2.5,3,2.7,5.5,0.3c11.6-11,18.5-24.7,24.7-39.1c1.1-2.6,0.2-3-1.6-3.9C842.4,746.7,837.3,743.9,831.4,740.8z M951.7,763.3
		c9.2,10.3,14.5,22.1,13.6,35c-0.5,6.8,1.7,7.6,6.7,8.9c9.4,2.4,10.7,1.6,9.9-7.7c-0.1-1.2,0-2.5-0.1-3.7
		c-0.9-12.4-4.2-24.1-9.6-35.2c-0.5-1-0.6-3.3-2.7-2.7C963.7,759.6,957.9,761.4,951.7,763.3z M1010,737.8c-4.6,2.8-8.9,5.8-13.6,8
		c-4.1,1.8-3.7,3.7-2.2,7.1c4.7,10.3,10.5,19.9,17.6,28.7c2.9,3.5,6.7,9.5,10.1,8.7c4.3-1,5.8-7.6,8-12.1c0.8-1.6,0.8-2.7-0.6-3.6
		C1016.6,765.8,1011.3,753,1010,737.8z M975.2,420.9c-0.1-17.5-0.3-17.6-13.3-12.6c-0.2,0.1-0.4,0.1-0.6,0.1c-3.1,0.5-4,2-2.8,5.1
		c0.7,1.8,0.9,4,0.7,6c-1.1,10.7-3.9,21-10.9,29.5c-2.3,2.8-0.7,3.8,1.2,3.8c4.2,0,8,1.5,11.7,2.7c4,1.3,5-0.3,6.4-3.5
		C972.2,440.7,974.7,429,975.2,420.9z M1048.8,517.1c3.1,5.3,6,10.1,8.9,14.9c1.3,2.2,2.7,1.4,4.6,0.6c11.3-4.5,21.7-10.7,30.7-18.8
		c10.3-9.2,9.4-12.5-3.8-17.5c-1.6-0.6-2.7-1-4,0.9C1076.5,509.6,1063.9,514.9,1048.8,517.1z M785.2,521.7
		c-14.3-1.7-27.1-5.9-35.9-17.8c-1.3-1.7-3.1-2.2-4.9-1.5c-4.3,1.5-7.5,4.6-11.1,7.2c-1.7,1.2-0.6,2.4,0.4,3.5
		c11,11.5,24.3,19.3,39.1,24.8c1.9,0.7,3.1,0.9,4.1-0.8C779.7,532,782.4,526.9,785.2,521.7z M788.5,698.7c-2.9-4.7-6-9-8.3-13.7
		c-1.5-3.1-3-3-5.6-1.8c-11.9,5.2-23.1,11.6-32.4,20.8c-8.2,8-7.9,9,2.9,14.1c2.7,1.3,5.5,3,8-0.6
		C761.5,705.7,773.9,700.9,788.5,698.7z M1051.8,694.3c13.8,0.9,25,6,34.8,14.9c1.7,1.6,1.6,5.8,5.2,4.6c2.6-0.8,5.1-2.5,7.5-3.9
		c1.4-0.8,2.2-2.2,3.8-3c2.1-1,2.3-2.4,0.4-4.3c-11.1-11.4-24.3-19.3-39.1-24.7c-1.9-0.7-3.1-0.8-4,0.9
		C1057.6,683.7,1054.9,688.7,1051.8,694.3z M1005.4,474.8c0.9-15,5.5-28.1,18.2-37.2c1.4-1,1.5-2.1,0.5-3.6
		c-2.3-3.5-4.3-7.3-6.5-10.8c-0.9-1.4-1.9-2.4-3.8-0.5c-11.7,11.4-19.5,25.1-25.4,40.1c-0.6,1.6-0.8,3,1.5,4.1
		C995.1,469.2,1000.2,472,1005.4,474.8z M885.2,452.6c-8.7-11.6-15.3-23.5-12.7-38.4c0.3-1.4,0.1-3.2-1.5-3.7
		c-4.4-1.4-8.6-3.5-13.5-2.9c-1.9,0.2-2.3,1.2-2.3,2.8c-0.6,16.1,3.2,31.2,10.3,45.6c0.5,1,0.6,2.4,2.5,1.8
		C873.7,456,879.4,454.4,885.2,452.6z M862,793.9c0.3,18.3,0.6,18.4,12.9,14.2c4.3-1.5,5.7-3.3,3.6-7.5c-0.6-1.2-0.5-2.8-0.4-4.2
		c1.2-10.7,3.9-21,11-29.5c2.4-2.9,0.2-3.8-1.4-3.7c-4.4,0.2-8.4-1.7-12.3-2.8c-3.5-1.1-4.3,0.3-5.2,2.6
		C865.4,774.7,862,786.8,862,793.9z M851,810.4c0.1-6.2-0.6-11.8,0.4-17.3c2-11.4,7.4-21.6,11.8-32.2c0.9-2.2,2.9-4.6-1.6-5
		c-2.4-0.2-4.8-4.6-6.9,1.7c-5,15.2-9.3,31.1-22.1,42.4c-2.1,1.8-1.3,2.7,0.9,3.8C838.9,806.5,844.4,808.9,851,810.4z M843.8,413.9
		c1.1-5.3-0.4-6.7-4.7-4.6c-2.7,1.3-5.5,2.4-8.2,3.7c-7.2,3.6-7.1,3.7-1.7,9.1c1.6,1.6,3,3.3,4.4,5c8.2,9.9,11.6,22.1,16,33.6
		c2.2,5.7,4.1,1.7,6.5,1.4c3.9-0.5,3.4-2.3,2-4.9c-2.6-5-4.9-10.1-7.3-15.2C846.5,432.9,843.8,423.4,843.8,413.9z M727.7,702.2
		c4-3,6.6-7,10.5-9.8c9.8-6.7,20.5-11,31.7-14.6c3.3-1.1,5.9-1.7,3.8-6.6c-2-4.7-3.7-4.4-7.3-2.3c-13.6,7.8-27.6,14.4-43.8,14.1
		c-3.3-0.1-3.6,1-2.5,4.1C721.9,692.4,723.8,697.7,727.7,702.2z M724.8,520.1c-4.1,4.8-5.6,10.3-7.5,15.8c-1.2,3.4,0.2,4,3,3.8
		c5.5-0.5,10.9,0.5,16.3,1.6c10.6,2.1,20,7.3,29.7,11.7c1.2,0.5,2.4,1.9,3.6,0.9c3.8-3.2,2.4-9.3-2.5-10.8
		C751.5,538.5,735.9,533.3,724.8,520.1z M980.9,462.3c1.8-1.1,1.7-3.4,2.2-5.1c3.9-12.9,7.7-25.9,16.7-36.4
		c6.7-7.8,6.9-7.7-2.6-11.9c-0.4-0.2-0.7-0.4-1.1-0.5c-3-0.9-6.6-3.3-9-2.4c-3.1,1.1,0.7,4.5,0.2,7c0,0.2-0.1,0.4-0.1,0.6
		c-0.9,14.5-6.9,27.5-12.7,40.5c-0.7,1.5-2.7,3.6-1.4,4.6C975.2,460.4,978.1,461,980.9,462.3z M985.6,751.4
		c-5.2-0.1-7.8,4.4-5.6,9.1c7,14.3,15.2,28.3,13.1,45.3c-0.2,2,0.8,2.1,2.7,1.4c4.1-1.6,8.2-3.2,12.2-5.1c4-2,5.8-3.3,1.3-7.1
		c-6.8-5.9-11.1-13.6-14.7-21.9c-2.7-6.3-4.4-12.9-7.4-19.1C986.9,753,987.5,751.3,985.6,751.4z M1109.9,513.5
		c-4.3,2.7-6.8,7.1-10.8,9.9c-9.6,6.9-20.7,10.8-31.5,14.9c-4.4,1.7-5.1,3.1-3.5,7c2,5,4.7,2.6,7.6,1.1
		c13.5-7.3,27.3-13.9,43.3-13.6c2.2,0.1,3.7-0.5,2.7-3.2C1115.4,524.1,1113.7,518.3,1109.9,513.5z M1112.7,696.1
		c3.8-5.3,5.4-11,7.3-16.4c1-2.8,0.1-3.6-2.7-3.6c-3.5,0-6.9,0.3-10.4-0.2c-12.3-1.9-23.5-6.7-34.4-12.4c-3-1.6-5.3-1.7-6.4,2.1
		c-0.8,2.8-1.9,5.2,2.6,6.6C1084.8,677.3,1101.3,682,1112.7,696.1z M709.1,611.6c5.7,4.4,11.9,7.2,18.3,9.2
		c3.8,1.2,7.9,0.6,10.3-3.2c2.6-4.2,2.9-8.9-0.3-12.8c-2.7-3.3-6.6-4.5-10.9-2.9C720.4,604.3,714.5,607.1,709.1,611.6z M773.3,756.2
		c-1.5,2.7,0.8,3,3.2,2.2c5.1-1.7,10.3-3.1,15-5.9c4-2.4,6.6-5.5,6.1-10c-0.6-4.6-3.9-7.6-8.3-8.6c-4.8-1.1-8.4,1.8-10.6,5.6
		C775.8,744.2,774.2,749.6,773.3,756.2z M768.5,465c0.7,6.7,4.3,15.6,7.7,18.7c4.9,4.5,10.5,4.1,14.7-1.2c3.5-4.4,2.4-10.7-2.8-13.8
		c-5.3-3.2-11.3-5-17.4-6.3C768.8,462,766.8,462.3,768.5,465z M922.2,818.2c4.7-7.6,9.4-14.2,8.9-22.8c-0.4-6.1-3.1-8.6-9.4-8.5
		c-5.8,0.1-8.9,3.2-9.2,8.8C912.2,804.5,917.9,810.6,922.2,818.2z M914.9,397.7c-4.2,7.6-9.7,14-8.8,23c0.5,5.6,3.8,8.4,9.7,8.2
		c5.5-0.2,8.6-3.2,8.8-8.5C924.9,411.5,919.8,404.9,914.9,397.7z M1063.9,459.7c1.3-2.9-1-2.9-3.3-2.2c-5,1.6-9.9,3.1-14.5,5.7
		c-4.1,2.3-7.2,5.6-6.3,9.9c0.8,4.3,3.6,8.4,8.8,9c4.9,0.6,8.2-2.2,10.3-6.2C1061.4,471.1,1063.1,465.9,1063.9,459.7z M1128.3,604.3
		c-5.8-4.3-11.7-7-18-9.1c-4.4-1.5-8.2-0.2-10.7,3.2c-2.5,3.5-3.2,7.7-0.3,11.6c2.9,3.8,6.4,5.8,11.6,3.8
		C1116.9,611.4,1122.5,608.5,1128.3,604.3z M1054.1,729c-4.7,0.2-7.5,3.1-9,7.5c-1.5,4.4,0,8,3.7,10.4c5.5,3.5,11.7,5.2,18,6.6
		c0.7,0.2,2.8,1.2,2.3-1.7c-1.1-6.6-3-13-7-18.4C1060.3,730.7,1057.7,729,1054.1,729z M742.7,599c6.5,7.9,6.6,15.9,0.3,24.2
		c11.1-2.2,17.1-6.9,16.9-12.7C759.7,604.9,752.3,599.8,742.7,599z M782.8,494.7c6.7,3.4,12.2,6,18.4,5.3c4.5-0.5,6.9-3.7,6-8.2
		c-1-4.8-2.4-9.6-6.3-13.9C798.9,487.3,794.1,493.4,782.8,494.7z M787.4,725.5c9,1.8,15.5,5,16.9,14c0.1,0.7,0.8,1.6,1.4,1.8
		c1,0.3,0.9-1,1.3-1.5c2.5-3.8,3.6-8.1,4.2-12.4c0.6-4.3-2-7.1-6.2-7.5C798.9,719.5,793.5,722.1,787.4,725.5z M1031.7,472.9
		c-1.8,3.6-3.8,5.9-3.9,8.3c-0.2,3.8-4.3,7.6-0.1,11.4c4.8,4.4,16.3,3.7,20.4-1.4c0.9-1.2,0.6-1.6-0.8-1.7
		C1038.3,488.5,1033.9,482.7,1031.7,472.9z M1036.3,738c1.9-9.2,6.7-15.6,17.4-16.8c-5.9-3.9-11.2-6.3-17.2-5.3
		c-3.8,0.6-7.1,3.3-6.4,7.5C1031,728.4,1032.2,733.5,1036.3,738z M1094.5,592.5c-11.7,2.7-17.8,7.7-17.2,13.6
		c0.5,5,8.8,10.3,17.2,10.7C1087.9,608.9,1087.8,601,1094.5,592.5z M927.7,432.2c-8.3,6.1-15.8,6.3-24.1,0.6
		c1,7.3,4.2,12.5,9.2,16.4c1.8,1.4,4.4,1.3,6.2-0.3C923.8,444.8,926.5,439.6,927.7,432.2z M909.8,783.4c8-6,15.5-6,23.7-0.5
		c-0.7-7.4-4.2-12.6-9.4-16.6c-1.4-1.1-4.1-1.1-5.8,0.4C913.5,771,910.4,776.2,909.8,783.4z"/>
</g>
<g id="Layer_7" class="st0">
	<line class="st2" x1="453.5" y1="616.5" x2="424.5" y2="661.5"/>
	<line class="st2" x1="520.5" y1="648.5" x2="491.5" y2="711.5"/>
	<line class="st2" x1="608.5" y1="678.5" x2="586.5" y2="755.5"/>
	<line class="st2" x1="708.5" y1="678.5" x2="708.5" y2="796.5"/>
</g>
<g id="Layer_7_copy" class="st0">
	<line class="st2" x1="953.5" y1="616" x2="982.5" y2="661"/>
	<line class="st2" x1="892.5" y1="648" x2="921.5" y2="711"/>
	<line class="st2" x1="808.5" y1="678" x2="830.5" y2="755"/>
</g>
<g id="Layer_10" class="st0">
	<g class="st3">
		<g>
			<path class="st4" d="M400,572c179.5,141.5,415.5,141.5,616.5,0.5"/>
			<path class="st5" d="M400,572c6,3.6,11.8,7.3,17.6,11l17.8,10.5l18.1,9.9l18.3,9.2c24.6,11.9,49.9,22,75.8,30
				c51.7,16.1,105.6,23.8,159.5,23c53.8-0.8,107.5-10,159.3-26.2c25.9-8.1,51.4-17.9,76.4-29.2c12.5-5.6,24.8-11.7,37.1-17.9
				l9.1-4.8l4.6-2.4c1.5-0.8,3.1-1.6,4.6-2.5c6.1-3.3,12.1-6.8,18.2-10c-5.3,4.5-10.7,8.8-16.1,13.2c-5.5,4.3-11.1,8.3-16.7,12.5
				c-11.4,8-23,15.7-35.1,22.9c-24,14.3-49.3,26.7-75.5,36.9c-52.4,20.4-108.8,31.9-165.5,32.7c-7.1,0.2-14.2-0.1-21.3-0.2l-5.3-0.1
				c-1.8,0-3.5-0.2-5.3-0.3l-10.6-0.7c-14.1-1.2-28.2-2.9-42.2-5.4c-3.5-0.5-7-1.3-10.4-2l-10.4-2.2c-3.5-0.7-6.9-1.6-10.3-2.5
				l-10.3-2.7c-1.7-0.4-3.4-0.9-5.1-1.5l-5.1-1.6l-10.1-3.1c-6.7-2.3-13.3-4.8-19.9-7.1c-26.3-10.2-51.6-22.9-75.3-37.8l-8.8-5.8
				c-2.9-1.9-5.9-3.8-8.7-5.8c-5.6-4.1-11.3-8.2-16.9-12.4c-5.4-4.4-10.9-8.8-16.2-13.2C410.3,581.3,405.1,576.7,400,572z"/>
		</g>
	</g>
</g>
<g id="Layer_10_copy" class="st0">
	<g class="st3">
		<path class="st4" d="M396,571.2c179.5-141.5,415.5-141.5,616.5-0.5"/>
	</g>
</g>
<g id="Layer_9" class="st0">
	<g class="st6">
		<path class="st5" d="M291.1,212.8c0,0,0.1-0.1,0.1-0.1c0-0.1,0.1-0.1,0.1-0.2L291.1,212.8z"/>
		<path class="st5" d="M0,636c6.6,10.6,16.5,9.2,22-3.4c13-29.7,35.4-52.8,52-79.9c3.1-5.1,4.2-4.6,8.8-1.7
			c22.2,13.8,47.1,18.3,75.2,19c9.1-5.3,21.9-1.6,34-5.1c60.1-17.2,106.1-49,122.7-113c1.5-5.7,3.7-7.6,10.1-6.7
			c30.6,4.1,61.5,5.6,91.1,15.4c6,2,11.4,2.5,16.1-2.3c4.2-4.3,3-9.5,1.2-14.2c-11.6-30-12.5-62.2-19.8-93.1
			c-1.2-5.1,1.4-6.5,6.5-7.8c11.3-3,22.4-7,32.6-13.3c32.4-20.3,54.9-48.5,68.1-84.3c17.6-47.6,18.8-94.3-9-138.9
			c-3-4.9-1.1-5.3,2.2-8c24.6-19.6,48.6-39.8,76.2-55.2c5-2.8,9.8-5.3,9.7-12c-0.1-6.6-4.9-9-10.1-11.7C578,13.8,567.2,7.1,556.6,0
			h-54.8c17.5,11.3,35.2,23,56.3,31.9C518.8,50.6,490.3,80.8,452,95.4c-28.1,10.8-55.2,12.3-82.1-4.2c-10.2-6.3-13.9-14.8-15.1-27.2
			c17.8,6.6,33.5,14.8,52.2,15.6c27.3,1.1,49.7-9.2,71.3-23.5c6.8-4.5,13.3-9.6,20-14.3c7.8-5.4,8.4-11.8,0.7-16.9
			c-13.4-9-26.8-18.1-41-24.8h-88.2c-5,2.3-10,4.6-15.1,6.9c-0.2-2.5-0.1-4.7,0.1-6.9h-19c3.7,31.2,3.1,62.8-1.8,94.8
			c-6,39.3-19.4,75.4-37.3,110.4c-1.5,3-3.1,5.5-5.6,7.5c-19.8,37.3-47.7,67.9-80.1,94.2c-41.9,33.9-90.1,56-142.6,67.1
			c-22.5,4.7-46,7-68.5,7 M407.8,20.3c5.6-7.8,14.4-10.6,24.2-7.3c14,4.8,27.4,10.9,40.5,20.6c-13,9.5-25.7,16-39.2,21.3
			c-11.6,4.6-19.5,0-26.1-8.6C400.5,37.7,402.2,28.2,407.8,20.3z M396.2,6.9c-15.1,19.3-14.7,37.1,0.1,54.8
			c-19-1.1-37.6-12.9-38.8-24.2C356.2,24.2,369.8,12.9,396.2,6.9z M343.8,138.9c2.9-11.4,5.2-22.9,8-35.3
			c23.7,20.4,50.6,30.1,81,27.7c11.8-0.9,17.5,2.9,20.2,14.1c7.1,29.8,7.6,25.3-17.8,24.8c-30.2-0.5-59.2-8-87.3-19.3
			C341.4,148.3,342.4,144.2,343.8,138.9z M332.4,171.4c2.4-8.5,7.7-8.3,14.5-4.7c24.5,13,49.8,23.7,77.5,28
			c7.9,1.2,15.6,0.5,23.4,0.5c6.4,0,8.3,1.9,6.1,8.2c-4.3,12.3-7.8,25-16.4,37c-25.9-31.8-62.9-42.5-99.2-54.2
			C328.2,183.1,330.6,177.7,332.4,171.4z M319.3,201.6c2.2-3.9,4.8-3.7,9.1-2.1c33.4,12.4,63.2,30.1,88.2,55.8
			c4.1,4.2,3.7,7.5-1,9.7c-3.6,1.6-5.6,4.8-8.6,6.7c-5.4,3.3-10.8,7-16.8,8.9c-8.1,2.5-7.8-6.9-11.6-10.4
			c-22.1-20-47.4-31.6-78.4-33.6C307,223.8,313.1,212.7,319.3,201.6z M265.7,285.1c13.6-2.3,25.5,3.2,38.8,11.9
			c-24.3,2.7-35.1,17.1-39.3,37.9c-9.4-10-12-21.7-13.9-33C249.8,292.5,257.1,286.5,265.7,285.1z M305.2,314.7
			c8.1,0,14,3.9,18.1,9.5c8.9,12.3,13.1,26.5,15.7,41.5c1.1,6.7-3.6,4.3-5.2,3.9c-14.2-3-28.2-6.9-40.5-14.8
			c-8.3-5.4-11.7-13.5-8.3-23.3C288.3,321.7,294.7,315.2,305.2,314.7z M175.2,352.4c10.6-4.8,20.2-11.7,30.6-17.9
			c3,34.3,14.9,63.1,43.8,82.7c3.2,2.2,3.2,4.5,1.4,8.2c-5.1,10.2-8.4,25.1-18.1,27.4c-7.7,1.8-16.3-11.7-22.8-19.7
			c-16-19.7-29.1-41.4-39.7-64.6C166.8,360.8,166.1,356.5,175.2,352.4z M150.8,365.1c4.4-0.1,2.9,3.6,4,5.8
			c6.6,13.9,10.5,28.8,16.6,43c8,18.7,17.6,36.1,33.1,49.3c10,8.6,6,11.7-3,16.1c-9,4.4-18.2,8-27.5,11.5c-4.3,1.6-6.6,1.3-6.1-3.2
			c4.7-38.3-13.9-69.8-29.6-102.1C133.1,375.1,139.1,365,150.8,365.1z M0,399c3.7-3.3,8.9-2.6,12.1-0.1
			c11.7,9.1,19.7,20.8,21.2,37.4c-11.4-7.8-22.4-10.7-33.4-8.5 M0,446c2.1-0.6,4.3-0.7,6.9-0.7c14.1-0.2,20.3,5.4,21.2,19.1
			c1.2,19.5-9.5,34.3-20.1,51.5c-2.6-4.6-5.3-8.6-8-12.8 M0,541c4.4,7,11.8,6.6,15.1,1.6c14.1-21.1,29.8-41.6,35.4-67.1
			c5.7-26.1,0.5-52-15.7-76.9c14.5-3.6,22.7,2.8,29.1,13.8c16.6,28.4,14.6,57.5,2.9,86.7C56.6,524.5,40,546.4,26,569.8
			c-5.4,9-10.8,17.8-16.4,27.1C6.4,591.6,3.4,586.1,0,581 M74.5,392c13.9-4.3,26.9-8.4,40-12.1c4.6-1.3,4.9,3.8,6,6.1
			c12.3,25,19.7,51.5,21.7,79.4c0.2,2.8,0,5.6,0.2,8.3c1.8,21-1,22.8-22.2,17.3c-11.2-2.9-16.2-4.8-15.1-20
			C107.1,441.7,95.3,415.2,74.5,392z M289.5,445.9c-2.3,18.3-10.2,34.2-22.6,47.1c-26.3,27.3-58.4,43.4-96.1,50.1
			c-24.5,4.3-46.7,1.7-68-10.7c-9.3-5.4-12.8-12.1-5.9-22c1.5-2.1,1.9-5,2.5-6.8c49.4,17.8,93.6,8.5,134.1-23.8
			c13.8-11,23.5-24.8,31.4-40.3c1.7-3.2,1.4-11.7,9.5-7.4C280.6,435.3,291.1,433.8,289.5,445.9z M348.1,417
			c-25.8-5-52.1-8.6-75.4-21.9c-25-14.3-44.6-33.1-46.7-64.5c-0.5-8.2,1.4-14.5,10.1-19.2c6.6,15.8,12.1,32,24.2,45.2
			c21.1,23.2,49,30.4,77.9,35.3c28.8,4.9,28.5,4.4,22.4-25.7c-5.5-27-12.8-52.7-34.3-72.4c-14.4-13.1-31.3-19.7-49.5-24.1
			c9.4-13.8,15.3-15.7,32-10.8c30.7,9.2,50,30.4,61.8,59.2c14.3,34.6,17,72.2,29.4,109C382.2,423.6,365.2,420.3,348.1,417z
			 M446.6,304.3c-10.3,8-23,10.5-35.1,13.9c-9.3,2.6-8-6.8-10-11.2c-1.8-4-5.6-8.6,2.7-12.8c39.4-19.7,61.1-53.1,69.4-95.4
			c4.1-21.1,2.2-42.3-4.8-62.9c-1.3-3.9-7.6-11.2,2-12.8c6.2-1,11.4-12,20.4,0.5c12.1,16.8,15.8,34.3,16.7,63
			C505.8,228.5,488.1,272.1,446.6,304.3z"/>
	</g>
</g>
<g id="Layer_3" class="st0">
	<g class="st6">
		<path class="st5" d="M531.8,737.6c0.8,3.4-1.7,4.6-4,4.9c-18.9,3.1-33.9,14.1-49.1,24.5c-7.1,4.8-13.8,10.1-21.4,14.2
			c-2.2,1.2-3.7,2.2-3.5,4.9c1.2,16.8-3.2,33.2-2.7,49.9c0.3,10.2,1.1,20.3,4.6,29.9c1.3,3.7,0.8,6.3-2.3,8c-3,1.6-4.7-0.3-6.9-2.9
			c-8.3-9.6-19.2-16.1-30.3-22.1c-12.7-6.9-26.7-11.5-38.9-19.4c-1.5-1-2.8-1.1-4.3-0.1c-10.3,7.8-22.8,11.2-34.1,16.9
			c-12.7,6.4-24.7,13.8-34.3,24.6c-2.1,2.4-4.4,5-7.9,2.9c-3.5-2.1-3.1-4.9-1.9-8.6c4.9-15.7,5.3-31.6,3.2-47.9
			c-1.3-9.6-2.3-19.5-1.6-29.3c0.2-2.4,0.6-4.9-2.4-6.3c-13.4-6.4-24.1-16.9-36.8-24.4c-10.8-6.4-21.6-12.6-34.2-14.8
			c-2.7-0.5-4.8-1.5-4.8-5.1c0-3.1,1.1-4.9,3.7-5.3c17.4-3,31.7-12.3,45.9-22.1c8.5-5.9,16.5-12.4,25.8-17.1c1.8-0.9,2.9-2,2.7-4.1
			c-1.2-16.5,2.9-32.8,2.8-49.3c-0.1-10.7-1.2-21.2-4.7-31.2c-1.2-3.3-0.7-5.7,2-7.6c2.7-1.8,5.1-0.9,7,1.6
			c8.1,10.6,19.5,16.8,30.8,23.2c12.6,7.2,26.9,10.8,38.8,19.4c1.2,0.9,2.5,1.2,3.7,0.3c17.5-11.9,38.8-16.6,55.7-29.7
			c4.7-3.7,9.1-7.5,13.1-11.9c2.1-2.3,4.3-5.2,7.9-3.2c3.4,1.9,3.3,4.7,2.2,8.5c-4.5,15.2-5.4,30.7-3.3,46.6
			c1.3,10.3,2.5,20.8,1.7,31.3c-0.2,2.2-0.4,4.6,2.2,5.8c13.8,6.2,24.5,17.1,37.4,24.7c10.7,6.3,21.4,12.1,33.6,14.5
			C530.2,732.6,532.7,733.7,531.8,737.6z M351.5,770.9c-8.2,2.7-15.7,2-21.7-4.9c-1.9-2.2-3-0.8-4.1,0.6c-5.8,7.8-9.1,16-3.8,25.5
			c1.1,2,1.2,5.4,4.1,5.4c1.9,0,2-3.1,3.1-4.5c1.4-1.7,3.1-3.2,4.6-4.8c4-4.1,9.1-5.4,13.8-2.6c4.5,2.7,5.5,7.6,4.4,13.2
			c-0.8,4.5-3.7,8.1-4.9,12.4c15.4,2.1,23-6.1,26.6-14.4c1.3-2.9,1.3-5.3-2.2-6.2c-10.5-2.7-13.4-10.3-13.3-20c0-1.2,0.6-3-1.3-3.2
			c-1.4-0.2-2.3,1.1-2.6,2.5C353.2,769.7,352,769.4,351.5,770.9z M396.1,737.4c6.4-2.5,13.2-3.8,17.8-9.2c3.3-4,5.3-8.5,1.8-13.1
			c-3.4-4.6-7.3-8.3-14.4-6.2c-6.5,1.9-10.6,6.7-17,11.8c3.8-10.8,6.3-20.2-2.7-27.5c-3.6-2.9-8.7-3.3-12.3-0.8
			c-10.3,7.1-7,17.2-3.6,27.9c-5.2-3.6-8.1-7.7-12.4-10.1c-7-3.9-13.6-2.8-17.7,3.6c-3.6,5.6-1.4,12.5,4.3,17.2
			c4.3,3.5,9.8,3.9,15.7,7c-6.9,1-12,3-16.5,6.2c-4.8,3.4-6.9,11.1-4.4,16c2.7,5.3,8.8,7.2,15,5.7c6.5-1.6,9.7-7.3,15.8-11.2
			c-1.2,4.1-2.3,7.2-2.9,10.4c-1.2,6.5,0.1,12.5,5.7,16.6c3.8,2.8,7.9,2.5,12.2,0.4c5.9-2.9,7-8.4,7.1-13.8
			c0.1-4.2-1.6-8.3-2.6-13.6c5.9,4.7,10,9.8,17.1,11.3c7.2,1.4,10.8-2.2,13.9-7c3.1-4.9,0.8-9.2-2.8-13
			C408.6,740.9,402.3,739.7,396.1,737.4z M384.9,686.7c1.8-17.1-1.7-26-19-37c-14.3-9.1-31.1-13.3-45.3-22.7
			c-4.7-3.1-9.5-5.9-15.7-9.6c4.1,13.9,1.5,26.5,0.9,39c-0.4,7-1.5,14-2.3,21.1c-1.9,17.2,3.4,36.7,23.6,42.9
			c0.9-3.6-0.4-5.5-3.4-8.2c-7.8-6.6-12.4-14.8-9.9-26.1c3.4-15.5,14.2-23.4,27.7-28c16.7-5.8,35.9,3.7,37.4,21.3
			C378.9,682.5,380.7,685.5,384.9,686.7z M513.7,737.3c-3.4-1.6-5.6-2.6-7.7-3.6c-16.8-8-31-19.9-46.3-30.2
			c-14.6-9.8-31.9-10.8-41.4-2.9c-1.3,1.1-4.1,1.6-3.1,3.5c0.9,1.7,3.3,2.9,5.7,2c1.4-0.5,2.9-1.1,4.3-1.5
			c12.5-3.4,26,1.2,31.8,13.4c4.9,10.4,6.6,20.9,3.1,31.4c-3.8,11.4-10.4,22.6-27.8,21.7c-4-0.2-7.8-0.8-11.5-2.5
			c-2.3-1-4.9,0.3-5.7,2c-1,1.9,1.7,2.5,3.1,3.5c11.4,7.2,23.1,7.1,34.5,0.8C473.4,763.5,490.5,746.7,513.7,737.3z M304.9,857.6
			c10.7-7.3,20.1-13,30-17.8c8.3-4,17.1-6.9,25.2-11.2c14.4-7.6,26.8-17.1,25.1-36.1c-0.1-1.4,0.9-3.7-1.4-3.7
			c-1.4,0-3.5,0.5-3.9,2.9c-0.3,1.9-0.9,3.8-1.3,5.7c-2.9,12.3-12.9,20.3-25.5,20.6c-11,0.3-20.3-4-28.3-10.9
			C310,794.6,308,774.6,324,762c3.3-2.6,3.7-4.6,2.8-8c-21.2,8-24.9,25.7-23.4,42.4c1.2,12.7,2.7,25.5,3.6,38.2
			C307.5,841.8,307.6,848.9,304.9,857.6z M444.4,617.6c-8.9,5.9-17.1,11.4-26,15.6c-10.9,5.1-21.9,10.1-32.9,15.2
			c-1.8,0.8-5.1,1.7-3.1,4.3c2.2,2.9,4.3,6,9.8,4.4c17.7-5,39.5,8.1,44,26.1c1.3,5.4,5.5,5.1,8.6,5.2c4.4,0.1,1.7-4.1,2.2-6.3
			c0.4-1.7,0.2-3.6,0-5.4c-1.8-13.8-3.6-27.6-4-41.6C442.8,629.6,444.4,624.1,444.4,617.6z M381.1,823.4
			c20.2,12.4,44,17.9,62.9,33.4c0.5-3.1,0.5-5.3-0.1-7.7c-1.7-6.8-1-13.8-0.5-20.6c1-12.3,2.6-24.6,3.6-36.9
			c0.2-1.9,1.7-5.9-2.3-5.5c-3,0.3-7.2-0.3-8.4,4.6c-4.2,17.7-23.1,30.5-42.2,27C387.6,816.5,384.7,818.6,381.1,823.4z M296.8,774.7
			c4-4.7,4.5-8.5-0.6-13.1c-3.2-2.9-5.6-7.3-6.6-12c-3.1-14.8-2.2-28.6,9.3-39.9c3.3-3.3,0.2-5.7-1.2-8.2c-1.7-2.9-3.5-0.4-5,0.6
			c-8.2,5.5-16.4,10.9-24.4,16.8c-9.5,7-19.7,12.7-31.5,18.6C260.2,746.8,276.8,763.6,296.8,774.7z M351.3,694
			c3.9,3,8.3,5.4,4.3,10.9c-1.2,1.6-0.1,1.9,0.5,2.3c0.7,0.4,1.8,0.5,2-0.8c0.1-0.9,0.2-1.8,0.2-2.7c0.1-9.4,2.8-16.9,13.1-19.5
			c3.6-0.9,3.5-3.4,2.1-6.7c-3.7-8.9-13-16.4-26.7-13.8c2.7,4.4,4.8,8.8,5.3,14c0.4,4.7-0.4,8.8-4.3,11.4c-3.9,2.5-8.4,1.8-11.8-0.7
			c-3.3-2.5-7.1-5.1-8.4-9.2c-1.3-4-2.5-2.1-3.8-0.4c-6.7,8.7-5.6,21.3,2.2,29.7c2.2,2.3,3.2,1.1,4.6-0.5c3-3.1,6.6-5,10.9-5.6
			C342.3,702.2,351,695.3,351.3,694z M415.3,740.6c9,10.5,8.8,9.7,7.2,21.3c-0.4,2.9,1.4,3,2.4,3.4c10.9,3.9,24.1-3.7,27.1-15.4
			c-14.6-1.3-21.1-4.6-20.9-11.6c0.5-14,12.3-12,21.4-13.6c-2.2-6.6-6.2-11.3-11.9-14c-5.4-2.6-11.4-2.8-16.7-0.3
			c-3.7,1.8,0,5.4,0.1,8.2c0,0.6-0.8,1.2-0.7,1.8c0.3,6.2-5,9.4-7.9,13.9c3.1,1.3,8.2-1.3,8.4,2.8
			C423.9,742.1,418.4,738.9,415.3,740.6z M430.8,786.5c-7.4-1.7-13.9-5.2-21-11.8c-2.8-2.6-6.3-4.3-9.5-3.3
			c-3.6,1.2,1.3,4.4-0.2,6.7c-0.4,0.6,0.1,1.8-1.1,2.1c-5.6-3.7-6.8-5.9-5.3-9.9c0.3-0.9,2.9-0.9,0.9-2.6c-0.3-0.3-0.8-0.6-1.2-0.5
			c-2,0.3-1.4,2-1.4,3.1c-0.3,7.6-3.3,15.1-0.3,23c1.2,3.1,0.8,7.3-0.3,10.6c-2,6,0,7.9,5.7,7.5c2-0.1,3.9,0,6.6,0
			c-3.3-5.2-5.5-10-5.2-15.9c0.2-4.2,0.3-8.5,4.4-10.3c4.1-1.8,8.5-1.1,12.5,1.8c4.4,3.1,6.7,7.6,9.2,11.9
			C427.9,795.1,429.9,791.1,430.8,786.5z M403.8,663.3c-2.3,0-3.4,0-4.5,0c-8.8-0.1-8.7-0.1-7.5,8.6c0.5,3.3,1.1,7.2-0.1,10
			c-3.7,8.2,0.5,15.9,0.3,23.8c0,1.3,0.6,2.3,2,1.6c0.6-0.3,1.9-0.6,0.8-2.2c-3.9-5.8-0.1-8.4,4.4-10.7c1.8,3.2-1.1,6.8,0.1,8.4
			c1.9,2.6,5-1.1,7.9-0.9c1.1,0.1,2.4-1.8,3.5-2.9c5.4-5.9,12-9.6,20.1-10.5c-1.1-4.9-2.8-9.1-6.7-12.9c-1.3,5.7-5.4,9-9.1,12.3
			c-3.5,3.1-8,3.4-11.9,1.7c-3.6-1.6-4.5-5.3-4.6-9.5C398.3,674,400,668.8,403.8,663.3z M297.9,724.8c14.7,1.1,21.2,4.1,21.2,10.9
			c0.1,14.7-12.2,12.5-21.6,14.4c1.1,2,1.9,3.5,2.7,5c2.1,4,3.7,6.5,8.5,1.8c3.9-3.8,9.3-6.5,15-7.8c4.9-1.2,8.4-4.4,11.1-8.6
			c-3-1.7-8.4,1.5-8.4-3.4c0-4.4,5.6-1.3,8.5-3.4c-3.4-3.7-6.5-7.1-11.6-8.5c-5.7-1.6-11.3-3.9-15.6-8.2c-3.1-3.2-4.7-3-6.7,1
			C300.2,720.2,298.3,721.9,297.9,724.8z M417.5,800.5c0.1-5.5-4-10.5-8.4-10.2c-3.7,0.3-5.9,3.1-6.1,6.6
			c-0.2,4.3,5.2,10.7,8.5,10.2C415.1,806.6,418.4,805,417.5,800.5z M332.7,674c0.1,5.7,4.3,10.9,8.6,10.3c3.6-0.4,5.7-3.3,6.1-6.8
			c0.4-3.7-5.4-10.6-8.7-10.1C335.1,668,331.8,669.6,332.7,674z M417.5,674.4c0.1-4.2-2.4-7-6.1-7c-3.4,0-9.1,6.5-8.6,10.3
			c0.4,3.5,2.5,6.3,6.2,6.7C413.3,684.7,417.4,679.7,417.5,674.4z M332.7,799.6c-0.1,3.9,2.5,7.5,5.7,7.7c3.5,0.2,9.3-6,9-10
			c-0.3-3.5-2.3-6.4-6-7C337.4,789.7,332.9,794.8,332.7,799.6z M303.7,744c4.5,0.2,8.6-1.1,8.6-6.4c0-4.4-2.9-7.3-7.8-7.1
			c-4.1,0.2-8.1,0.6-8.2,6.3C296.2,742,298.5,744.3,303.7,744z M446.4,744.1c5.1,0.2,7.6-1.9,7.5-7c-0.1-5.4-3.2-6.5-7.8-6.5
			c-4.7,0-8.1,2.3-8.1,6.7C437.9,742.1,441.6,744.4,446.4,744.1z"/>
		<path class="st5" d="M327.3,691.1c5.6,1.1,7.2,4.1,7.8,7.3c0.3,1.8-1.9,3-3.8,2.4c-3.1-0.8-5.8-2.7-6.1-6
			C325.1,693.4,326.2,690.8,327.3,691.1z"/>
		<path class="st5" d="M358.3,676.6c-0.1-2.1-0.2-4,2.9-3.9c4.3,0.2,4,3.8,4.4,6.2c0.2,1.5-0.9,4.7-3.3,4.3
			C359.2,682.6,357.9,679.9,358.3,676.6z"/>
		<path class="st5" d="M358.3,796.5c0.3-2.9,1.9-5.3,4.8-5.1c3,0.2,3,3.8,2.9,5.5c-0.2,1.9-1.1,5.1-4.3,4.9
			C358.3,801.7,358.2,799.1,358.3,796.5z"/>
		<path class="st5" d="M327.6,783.2c-1.6,0.2-1.5-1.6-1.7-3.5c-0.4-4.3,2.8-5.1,5.7-5.9c1.9-0.6,4,0.9,3.5,2.8
			C334.2,779.6,332.8,782.9,327.6,783.2z"/>
		<path class="st5" d="M352.5,771.9c0.6-0.8,1.1-1.6,1.7-2.4c5,3.4,3.9,6.8-3.4,10.6C349.6,777,349.8,774.2,352.5,771.9z"/>
		<path class="st5" d="M433.3,722.5c-2.7-0.2-5.3,0.7-5.1-3c0.3-3.8,3.4-4.5,6-4.9c1.9-0.3,4.9,0.6,4.6,3.3
			C438.5,721.2,436.1,722.8,433.3,722.5z"/>
		<path class="st5" d="M432.3,752.1c3.5-0.3,6.2,1.1,6.6,4.8c0.3,2.6-2.7,3.2-4.2,3.1c-2.9-0.2-6.2-0.9-6.4-5.1
			C428.1,751.6,430.3,752.2,432.3,752.1z"/>
	</g>
</g>
<g id="Layer_2">
	<path class="st5" d="M1125,820c25.5,1.7,57.3,8.2,84.4,32.1c35.1,31,24.5,79.8-16.2,99.6c-10.1,4.9-20.4,9.5-30.3,14.8
		c-13.9,7.6-26.2,16.5-32.7,31.5c-5.4,12.4-22.3,14.7-25.8,3.4c-8-25.4-31.9-31.1-52.1-41.2c-19.8-9.9-38.4-20-47-41
		c-12.5-30.4,2.9-63.4,38.9-82.1C1066.5,825.7,1090.3,819.7,1125,820z M1107.1,841.6c-19.9-1.1-41,11.1-59.9,25
		c-23.2,17.1-22.4,44.3,1.3,61.3c20.3,14.6,43,26.2,64.6,39.2c3.3,2,5.9,0.9,8.2-1.1c18.7-15.9,42.8-23.8,62.9-37.7
		c18.3-12.7,21.5-36,7-53.1C1171.3,851.7,1144.6,842.1,1107.1,841.6z"/>
	<rect x="1051.6" y="869.6" class="st7" width="144.4" height="75"/>
	<text transform="matrix(1 0 0 1 1051.5913 914.2227)" class="st8 st9">Entre</text>
</g>
</svg>
